<svg width="155" height="34" viewBox="0 0 155 34" fill="none" xmlns="http://www.w3.org/2000/svg">
<g id="Frame 1618872726">
<g id="Group">
<path id="Vector" d="M0.196596 15.3033C0.502444 16.4211 0.944534 17.4748 1.7022 18.3396C3.21615 20.0662 5.12909 21.0269 7.46883 21.0769C8.48508 21.0991 9.49438 21.0672 10.4773 20.7863C12.2039 20.2928 13.6497 19.3961 14.6424 17.8613C14.773 17.6597 14.7995 17.5471 14.5589 17.3873C13.9028 16.9535 13.2772 16.4767 12.6335 16.0235C12.0121 15.5869 11.3837 15.1587 10.7511 14.7222C10.7094 14.7806 10.6719 14.8265 10.6413 14.8751C9.94342 16.0165 8.68666 16.5921 7.56337 16.3085C6.76955 16.1083 6.13283 15.7273 5.75469 14.9335C5.50584 14.4094 5.44884 13.8895 5.49333 13.3473C5.64208 11.5303 7.07957 10.5363 8.84376 10.9631C9.66399 11.1619 10.1895 11.7471 10.5523 12.5076C10.633 12.4867 10.7261 12.4881 10.7901 12.445C12.0399 11.5984 13.2799 10.7365 14.5381 9.90232C14.7425 9.76608 14.7383 9.66738 14.6271 9.51306C14.3935 9.18914 14.1558 8.86661 13.9111 8.55103C13.2494 7.69327 12.3777 7.10937 11.3823 6.71316C9.85723 6.10425 8.2696 5.911 6.64304 6.14039C5.68935 6.27524 4.76625 6.52548 3.90848 6.98843C3.02986 7.46249 2.25968 8.06584 1.6452 8.84715C1.14473 9.48387 0.673441 10.1456 0.466298 10.9464C0.466298 10.9464 -0.370613 13.2249 0.197986 15.3005L0.196596 15.3033Z" fill="white"/>
<path id="Vector_2" d="M88.9659 33.9263C88.6378 33.829 88.3042 33.747 87.983 33.633C87.0516 33.3035 86.426 32.5459 86.4955 31.5227C86.5428 30.8275 87.2254 30.0546 88.0651 29.7404C89.2718 29.2886 90.4465 29.4582 91.6171 29.8739C91.6935 29.9003 91.7686 29.9322 91.8464 29.9517C91.8909 29.9628 91.941 29.9531 92.0675 29.9531C91.9896 29.4165 91.9688 28.8812 91.8284 28.3794C91.6157 27.6245 90.9637 27.2728 90.2672 27.1671C89.4442 27.0434 88.592 27.0698 87.8816 27.6412C87.7703 27.7301 87.6424 27.8108 87.559 27.9234C87.3074 28.2584 87.103 28.143 86.9014 27.8789C86.8653 27.8316 86.8264 27.7871 86.7735 27.7218C87.4659 26.9141 88.2889 26.3927 89.4052 26.415C90.0253 26.4275 90.6425 26.3983 91.2222 26.6777C92.1926 27.1462 92.7487 27.9359 92.8029 28.9786C92.8836 30.5328 92.8599 32.0926 92.8794 33.6497C92.8794 33.6594 92.8655 33.6678 92.8446 33.6942H91.998V32.4082C91.4461 33.1047 90.865 33.5983 90.0545 33.7442C89.9377 33.7651 89.8084 33.747 89.7027 33.7887C89.5915 33.8318 89.5012 33.9263 89.4025 33.9986C89.3538 33.9986 89.3051 33.9986 89.2579 33.9986C89.1605 33.975 89.0646 33.95 88.9673 33.9263H88.9659ZM89.2662 33.1617C89.5609 33.1325 89.8696 33.1478 90.149 33.0658C91.1291 32.7766 91.7338 32.1079 91.9952 31.132C92.0689 30.8554 92.0369 30.6454 91.6977 30.5245C90.8219 30.2145 89.9446 30.0504 89.0034 30.1602C87.9093 30.2895 87.3463 30.8609 87.3713 31.9481C87.3797 32.3109 87.5576 32.5709 87.8482 32.7975C88.2778 33.1325 88.7588 33.1645 89.2662 33.1617Z" fill="white"/>
<path id="Vector_3" d="M58.3336 33.9983C57.879 33.6758 58.0514 33.1975 58.0486 32.7777C58.0361 30.9635 58.043 29.1492 58.043 27.2571C57.5981 27.2432 57.163 27.221 56.7293 27.2168C56.0439 27.2099 56.0439 27.2154 56.1092 26.4953H58.0402V24.1973H58.9133V26.4897H60.6427V27.1821C60.1005 27.3989 59.518 27.221 58.9147 27.31V27.6492C58.9147 29.3925 58.9189 31.1358 58.9119 32.8792C58.9105 33.2726 59.044 33.7091 58.6241 33.9997H58.3336V33.9983Z" fill="white"/>
<path id="Vector_4" d="M104.491 33.916C104.494 33.9438 104.497 33.9702 104.5 33.998H103.992C104.016 33.9744 104.041 33.9494 104.064 33.9257C104.208 33.923 104.349 33.9188 104.493 33.916H104.491Z" fill="white"/>
<path id="Vector_5" d="M88.9668 33.9258C89.0641 33.9494 89.16 33.9744 89.2573 33.9981H88.9668C88.9668 33.9744 88.9668 33.9494 88.9668 33.9258Z" fill="white"/>
<path id="Vector_6" d="M67.7765 0.144361C67.8209 0.173555 67.8932 0.194409 67.903 0.233335C67.9238 0.312577 67.9127 0.400161 67.9127 0.483574C67.9127 7.32623 67.9127 14.1675 67.9127 21.0102V21.2771H62.1322C62.0946 20.8836 62.0571 20.486 62.0098 19.9995C61.7443 20.2038 61.5052 20.3595 61.2994 20.5528C60.6766 21.1339 59.9036 21.3744 59.0945 21.5093C57.1899 21.8276 55.5022 21.3549 54.03 20.1023C52.8914 19.1334 52.2116 17.8947 51.8001 16.4864C51.5276 15.5549 51.4706 14.5999 51.5123 13.6406C51.5818 12.0266 52.0364 10.514 52.9887 9.20581C53.8131 8.07139 54.8961 7.21502 56.2891 6.83132C58.0574 6.34613 59.7479 6.48654 61.3064 7.51669C61.5719 7.69186 61.8013 7.92403 62.0863 8.16315V0.0957031C63.9798 0.0957031 65.8371 0.0957031 67.6944 0.0957031C67.7222 0.112386 67.75 0.127678 67.7765 0.144361ZM59.5547 16.8214C60.7489 16.8353 61.6025 16.3001 61.989 15.231C62.2628 14.4747 62.2517 13.6809 61.9862 12.9121C61.5483 11.6415 60.0468 11.0687 58.6511 11.4635C57.3846 11.8222 56.6033 13.5683 56.9814 14.8028C57.1663 15.4076 57.4304 15.9553 57.9573 16.3446C58.4328 16.6963 58.9722 16.8284 59.5547 16.8214Z" fill="white"/>
<path id="Vector_7" d="M23.6756 21.6409C21.999 21.6617 20.4433 21.2321 19.0517 20.3563C17.2708 19.2358 16.2115 17.6064 15.8584 15.5114C15.5164 13.4844 15.825 11.5951 16.9441 9.87126C18.0132 8.22524 19.5897 7.24236 21.4804 6.81C22.3076 6.62093 23.189 6.55976 24.0398 6.58895C25.8874 6.6529 27.6405 7.11724 29.096 8.31144C30.4154 9.39442 31.2773 10.786 31.5387 12.4904C31.6387 13.1452 31.6971 13.8153 31.6832 14.4757C31.6499 16.0855 31.1633 17.5745 30.1331 18.8187C28.9237 20.2798 27.3305 21.1404 25.4453 21.4379C24.8586 21.5296 24.265 21.5741 23.6756 21.6409ZM21.1662 14.0795C21.1148 15.0874 21.479 15.8965 22.3173 16.4859C22.8526 16.8613 23.4601 16.8432 24.0662 16.821C25.0602 16.7834 25.9041 16.0133 26.0918 15.2097C26.2058 14.7231 26.26 14.2046 26.2294 13.7069C26.203 13.2884 26.0793 12.8463 25.8846 12.4738C25.3619 11.4756 23.8911 11.1683 22.8651 11.4547C22.0115 11.6938 21.0355 12.87 21.1662 14.0795Z" fill="white"/>
<path id="Vector_8" d="M70.5269 6.87444H75.7527V7.2067C75.7527 9.6368 75.8222 12.0683 75.7263 14.4942C75.6721 15.858 76.9511 17.1106 78.2537 16.9883C79.1226 16.9063 79.8427 16.6546 80.2987 15.9275C80.5198 15.5758 80.6671 15.117 80.6727 14.7055C80.7061 12.1086 80.6894 9.51029 80.6894 6.88556H85.8957C85.9013 6.95368 85.9152 7.04404 85.9152 7.13441C85.9152 9.69658 85.9736 12.2601 85.8971 14.8195C85.8415 16.6894 85.2979 18.4244 83.8257 19.734C82.9096 20.55 81.8099 21.006 80.6324 21.2924C79.573 21.5496 78.49 21.6705 77.4071 21.5732C75.7875 21.4286 74.2179 21.0575 72.9208 20.0148C71.7475 19.0722 71.0385 17.8294 70.7382 16.346C70.5811 15.5744 70.5227 14.8029 70.5255 14.0202C70.5324 11.6512 70.5283 9.28091 70.5283 6.87305L70.5269 6.87444Z" fill="white"/>
<path id="Vector_9" d="M106.462 0.145738C106.486 0.266687 106.529 0.387636 106.529 0.507195C106.533 2.47992 106.532 4.45125 106.532 6.42397C106.532 6.55465 106.532 6.68533 106.532 6.8452H110.867V11.3551H106.547V21.2715H101.029V11.3871C99.4822 11.3871 97.9641 11.3871 96.4459 11.3871C96.4251 11.3676 96.4056 11.3495 96.3848 11.3301V6.87023H101.103C101.103 6.48653 101.103 6.13063 101.103 5.77473C101.1 3.98413 101.1 2.19214 101.088 0.401538C101.086 0.176322 101.134 0.0734463 101.383 0.0762267C103.051 0.0887387 104.719 0.0915191 106.386 0.09708C106.411 0.112372 106.437 0.129055 106.462 0.144347V0.145738Z" fill="white"/>
<path id="Vector_10" d="M44.3837 21.3192C44.3837 20.6519 44.3837 19.9791 44.3837 19.3076C44.3865 17.624 44.4171 15.9405 44.381 14.2569C44.3643 13.4617 44.26 12.6735 43.6845 12.0117C43.2646 11.5293 42.7322 11.3263 42.1552 11.2707C41.7187 11.2276 41.2432 11.2874 40.8248 11.4237C40.0157 11.6878 39.5499 12.3342 39.4026 13.1322C39.2719 13.8385 39.251 14.5725 39.2469 15.294C39.2371 16.94 39.2663 18.5861 39.2789 20.2321C39.2816 20.5769 39.2789 20.923 39.2789 21.322C37.9025 21.322 36.5749 21.3192 35.2472 21.3234C35.0081 21.3234 34.7676 21.3429 34.5299 21.3693C34.2504 21.4013 34.142 21.3109 34.1531 21.012C34.1837 20.1125 34.192 19.2117 34.1962 18.3122C34.2046 16.6523 34.2296 14.9923 34.199 13.3338C34.1726 11.8602 34.5869 10.5478 35.446 9.35362C36.1898 8.31929 37.2005 7.66867 38.371 7.22102C39.7724 6.6844 41.2405 6.64269 42.703 6.72749C43.925 6.79839 45.1233 7.06114 46.2216 7.65199C47.7522 8.47639 48.7532 9.7401 49.1703 11.4014C49.3774 12.2272 49.4441 13.103 49.465 13.958C49.5206 16.263 49.5192 18.568 49.5359 20.8744C49.5401 21.3832 49.5053 21.3637 48.9895 21.3443C47.9636 21.3067 46.9348 21.322 45.9074 21.3165C45.4153 21.3137 44.9231 21.3165 44.3851 21.3165L44.3837 21.3192Z" fill="white"/>
<path id="Vector_11" d="M88.3217 7.00324C88.3912 6.95598 88.4593 6.867 88.5288 6.867C90.3542 6.86005 92.1782 6.86144 94.0286 6.86144V21.2711H88.3273V7.07832C88.3356 7.07136 88.3509 7.06024 88.3495 7.05607C88.3426 7.03661 88.33 7.01993 88.3203 7.00324H88.3217Z" fill="white"/>
<path id="Vector_12" d="M91.1568 0.00355154C92.6318 -0.0715203 94.1235 1.29368 93.9789 2.96055C93.8468 4.48562 92.7082 5.54079 91.0859 5.54636C89.6206 5.55192 88.4125 4.30628 88.3888 2.76731C88.3666 1.30341 89.6956 -0.0617888 91.1568 0.00216132V0.00355154Z" fill="white"/>
<path id="Vector_13" d="M94.6256 32.3004V33.692H93.7734V23.043H94.6187V27.8545C95.4556 26.8633 96.426 26.335 97.6508 26.3461C98.8714 26.3572 99.8834 26.8369 100.598 27.7989C101.803 29.4241 101.427 31.6929 100.244 32.8412C98.9214 34.1244 96.1201 34.3663 94.627 32.299L94.6256 32.3004ZM100.508 30.1108C100.654 28.3828 99.1786 27.0829 97.6688 27.069C95.8435 27.0524 94.5923 28.3008 94.5478 30.0135C94.5005 31.85 95.8935 33.1179 97.5521 33.1262C99.2926 33.136 100.58 31.9195 100.508 30.1108Z" fill="white"/>
<path id="Vector_14" d="M77.1343 33.7954C76.6741 33.7718 76.2153 33.7468 75.7552 33.7231C74.4595 33.2824 73.4891 32.4942 73.1346 31.1332C72.8162 29.9098 72.9872 28.7573 73.8075 27.7368C74.6082 26.7428 75.6565 26.2896 76.9146 26.3536C78.6135 26.4398 79.8216 27.3907 80.1677 29.0589C80.2442 29.426 80.1788 29.8222 80.1788 30.2379H73.8812C73.813 30.9121 74.0257 31.4849 74.4122 31.9617C75.0281 32.7208 75.8428 33.1684 76.8521 33.1267C77.7251 33.0906 78.5175 32.7986 79.1376 32.1661C79.3864 31.9117 79.5977 31.9325 79.8035 32.1522C80.0301 32.3927 79.8633 32.5859 79.6659 32.7514C78.9318 33.3645 78.1185 33.7871 77.1315 33.7954H77.1343ZM79.3892 29.5928C79.3864 28.546 78.904 27.8119 78.0379 27.3865C77.1398 26.9458 75.6342 26.9764 74.8571 27.7132C74.3191 28.2234 73.8589 28.7767 73.9604 29.5928H79.3906H79.3892Z" fill="white"/>
<path id="Vector_15" d="M48.441 30.2855H42.0696C42.0946 30.9083 42.3073 31.406 42.6313 31.8592C43.268 32.7503 44.1424 33.198 45.2449 33.1271C46.1096 33.0715 46.8478 32.6891 47.4859 32.1219C47.7028 31.9287 47.8696 31.9217 48.0698 32.1219C48.2825 32.336 48.1407 32.4737 47.9892 32.6294C47.2412 33.4023 46.3445 33.7735 45.2518 33.7972C44.3968 33.8152 43.6183 33.7054 42.8996 33.2174C41.9737 32.589 41.4704 31.7021 41.2786 30.6344C40.9644 28.8841 42.1099 27.0462 43.7379 26.536C45.3714 26.0244 47.3775 26.4943 48.1963 28.2933C48.4785 28.9147 48.4952 29.5695 48.4396 30.2841L48.441 30.2855ZM47.6499 29.5917C47.6819 28.0708 46.3584 27.024 44.743 27.0782C43.3625 27.1241 42.0293 28.4184 42.1767 29.5917H47.6499Z" fill="white"/>
<path id="Vector_16" d="M61.6771 26.4999C62.4626 26.4721 62.4584 26.4721 62.4584 27.2645C62.4584 28.5143 62.4417 29.7641 62.4751 31.0139C62.5057 32.1692 63.1174 32.7684 64.2073 33.0561C65.0386 33.2758 65.7755 33.0144 66.4316 32.5334C66.8376 32.2345 67.0419 31.7855 67.0433 31.2683C67.0461 29.6946 67.0433 28.1209 67.0433 26.4929C67.3005 26.4929 67.5494 26.4776 67.7941 26.5026C67.8636 26.5096 67.9734 26.6361 67.9734 26.707C67.9817 27.7038 67.9873 28.6992 67.9651 29.696C67.9498 30.3841 67.9651 31.0848 67.8358 31.7563C67.5925 33.02 66.6416 33.7193 65.3056 33.7874C64.6911 33.818 64.0822 33.8569 63.483 33.6748C62.539 33.387 61.6993 32.4111 61.684 31.3684C61.6604 29.7558 61.6785 28.1417 61.6785 26.5012L61.6771 26.4999Z" fill="white"/>
<path id="Vector_17" d="M55.2825 33.8441C54.9697 33.8622 54.8418 33.7329 54.8446 33.4062C54.8585 32.0591 54.8376 30.7134 54.8543 29.3662C54.8696 28.154 54.3204 27.5381 53.1916 27.2906C52.4019 27.1183 51.6526 27.2322 50.9714 27.7008C50.5112 28.0177 50.3208 28.5029 50.2971 28.9937C50.2304 30.3922 50.2304 31.7936 50.2235 33.1935C50.2221 33.5466 50.2471 33.8608 49.7424 33.7941C49.7063 33.7899 49.6632 33.84 49.6243 33.865C49.3921 33.783 49.324 33.6273 49.3268 33.377C49.3421 32.1272 49.3017 30.8746 49.3448 29.6262C49.3754 28.7392 49.5395 27.8634 50.2443 27.2142C50.7448 26.7526 51.344 26.5038 52.0307 26.4913C52.851 26.476 53.667 26.4482 54.4205 26.8833C55.1393 27.3004 55.5939 27.9121 55.6342 28.7142C55.7148 30.3046 55.7009 31.9006 55.7426 33.4924C55.7524 33.8622 55.4271 33.7176 55.2825 33.8441Z" fill="white"/>
<path id="Vector_18" d="M104.494 33.9169C104.35 33.9197 104.209 33.9239 104.065 33.9266C103.848 33.8682 103.633 33.7987 103.412 33.7556C102.549 33.5888 101.865 33.1565 101.371 32.403C101.514 32.2778 101.652 32.1333 101.815 32.0276C101.872 31.9915 102.036 32.0193 102.079 32.0749C102.911 33.1078 104.323 33.3984 105.568 32.8881C106.038 32.6963 106.255 32.2764 106.242 31.6008C106.234 31.1309 105.871 30.9488 105.522 30.8278C104.797 30.5776 104.046 30.3969 103.312 30.1689C102.679 29.9729 102.13 29.674 101.813 29.0358C101.442 28.2879 101.774 27.4468 102.28 27.0159C103.426 26.0399 105.208 26.229 106.305 26.9672C106.404 27.0325 106.48 27.1312 106.566 27.2147C106.711 27.3523 106.847 27.4677 106.625 27.679C106.436 27.8583 106.341 27.9084 106.102 27.7151C105.207 26.9922 104.199 26.849 103.142 27.3189C102.734 27.501 102.453 27.8389 102.472 28.3227C102.49 28.7787 102.695 29.1568 103.142 29.3097C103.836 29.5488 104.546 29.7393 105.247 29.9548C105.849 30.1397 106.413 30.376 106.81 30.9126C107.178 31.4117 107.218 31.9317 106.972 32.4683C106.58 33.3219 105.838 33.6736 104.948 33.7946C104.794 33.8154 104.644 33.8766 104.492 33.9197L104.494 33.9169Z" fill="white"/>
<path id="Vector_19" d="M34.291 26.5081C35.153 26.4567 35.1655 26.4525 35.463 27.181C36.1762 28.9271 36.8754 30.6788 37.5844 32.4263C37.6442 32.575 37.7346 32.7113 37.8611 32.9448C38.0279 32.6014 38.1725 32.3442 38.2837 32.0718C38.9496 30.441 39.6072 28.8061 40.269 27.174C40.2773 27.1518 40.2968 27.1337 40.3065 27.1128C40.4835 26.6643 40.8436 26.4673 41.3867 26.522C41.2032 26.9766 41.028 27.4201 40.8473 27.8594C40.0757 29.7292 39.2958 31.5963 38.5381 33.4731C38.4631 33.6594 38.3852 33.7164 38.21 33.7122C37.1354 33.69 37.3787 33.8665 36.9978 32.9518C36.1525 30.9179 35.3017 28.8881 34.4523 26.8556C34.4078 26.7486 34.3564 26.6457 34.2938 26.5081H34.291Z" fill="white"/>
<path id="Vector_20" d="M84.7563 23.0352H85.6168V33.6689C85.5849 33.6856 85.5654 33.7051 85.5459 33.7051C84.5783 33.7051 84.7632 33.8066 84.7605 32.9391C84.7521 29.8041 84.7577 26.6692 84.7563 23.5356C84.7563 23.3813 84.7563 23.2256 84.7563 23.0365V23.0352Z" fill="white"/>
<path id="Vector_21" d="M69.9462 33.6947H69.0898V26.5073H69.9448V27.4888C70.2701 27.1871 70.5343 26.8576 70.8707 26.6463C71.4699 26.2696 72.1358 26.2585 72.8059 26.4809C73.1395 26.5921 72.988 26.8521 72.9616 27.0495C72.9338 27.2525 72.785 27.2038 72.6154 27.1732C71.0806 26.9035 70.0143 27.5444 69.956 29.2168C69.9087 30.5848 69.9462 31.957 69.9462 33.3263C69.9462 33.4431 69.9462 33.5613 69.9462 33.6947Z" fill="white"/>
<path id="Vector_22" d="M88.3223 7.00391C88.332 7.02198 88.3445 7.03866 88.3515 7.05673C88.3529 7.06091 88.3362 7.07203 88.3292 7.07898C88.3264 7.05395 88.325 7.02893 88.3223 7.00391Z" fill="white"/>
<path id="Vector_23" d="M67.7773 0.144361C67.7495 0.127678 67.7217 0.112386 67.6953 0.0957031C67.7231 0.112386 67.7509 0.127678 67.7773 0.144361Z" fill="white"/>
</g>
</g>
</svg>
